<?xml version="1.0" ?><svg id="Layer_1" style="enable-background:new 0 0 231.039368 231.039368;" version="1.1" viewBox="0 0 231.039368 231.039368" xml:space="preserve" xmlns="http://www.w3.org/2000/svg" xmlns:xlink="http://www.w3.org/1999/xlink"><style type="text/css">
	.st0{fill:#000001;}
	.st1{fill-rule:evenodd;clip-rule:evenodd;fill:#373B3C;}
	.st2{fill-rule:evenodd;clip-rule:evenodd;fill:#1125DA;}
	.st3{fill-rule:evenodd;clip-rule:evenodd;fill:#070B93;}
	.st4{fill-rule:evenodd;clip-rule:evenodd;fill:#070C91;}
	.st5{fill-rule:evenodd;clip-rule:evenodd;fill:#4A646E;}
	.st6{fill-rule:evenodd;clip-rule:evenodd;fill:#98C7DC;}
	.st7{fill-rule:evenodd;clip-rule:evenodd;fill:#1225D5;}
	.st8{fill-rule:evenodd;clip-rule:evenodd;fill:#FBFDFD;}
</style><g id="Ek1z1K_1_"><g><path class="st0" d="M41.519684,140.990372c0-8.333908,0-16.666,0-25c0.782696-8.752899,1.114197-17.535103,0.953594-26.308601    c-0.237297-12.993103,5.0298-20.044899,17.451099-21.9804c1.149002-0.178703,2.262203-0.684601,3.419003-0.721199    c7.381802-0.235405,7.479,0.0205,8.653309-8.541c1.338387-9.758801,4.398888-19.068401,9.653793-27.1245    c5.544899-8.503,13.560593-14.7642,24.574203-14.753c10.483391,0.0103,21.169998-1.5141,31.414093,0.646    c16.294907,3.4361,29.764603,11.4785,36.38179,27.939001c0.702209,1.744099,1.5616,3.328598,3.0616,4.471699    c7.101517,5.410099,11.125,12.599098,12.437515,21.372002c0,4,0,8,0,12c-0.857513,4.5821-2.44931,8.7481-5.276413,12.616196    c-2.498993,3.417-1.817398,7.848701-0.942398,11.614304c3.489304,15.007797,0.8125,29.707001-1.496094,44.464798    c-1.357407,8.674896-2.975601,17.308594-4.030304,26.030304c-0.683594,5.654297-2.008789,11.111404-5.311493,15.90329    c-2.911102,4.9375-7.355499,6.902405-12.941406,6.798904c-3.4814-0.063492-6.966797,0-10.449203-0.003891    c-10.080093-0.007813-12.638687-1.716812-16.503891-10.994202c-1.737305-4.152298-2.507797-8.488312-2.487305-12.996109    c0.010696-2.075195-0.399399-4.301697-3.053703-4.171799c-2.682693,0.132797-2.005898,2.601501-2.072296,4.247009    c-0.183601,4.592789,0.287102,9.2276-1.023399,13.741196c-1.799797,9.916092-8.701202,16.798904-19.113297,18.732498    c-9.371101,1.741196-18.246101-0.395493-26.502007-4.669998c-3.817787-1.974609-5.674789-5.927704-6.125-10.320297    c-0.102493-6.133804-1.219193-12.191406-1.38179-18.326111c-0.092804-3.507889-1.780807-5.722687-5.628906-5.232498    c-12.226093,1.560608-21.188499-8.027298-22.665501-20.660095C42.173481,146.840973,42.502579,143.837067,41.519684,140.990372z"/><path class="st1" d="M133.69928,188.942566c2.664093,7.367203,7.386795,11.325211,15.716797,10.148407    c3.409195-0.4814,6.943405-0.174805,10.416992-0.079102c5.013702,0.137695,9.020508-1.503906,11.528412-6.064407    c6.721588,1.170898,13.914993,1.276306,18.158203,8.042908c0,1,0,2,0,3c-1.268616,3.25-4.029312,4.587891-7.070404,5.673904    c-10.075211,3.595688-20.5849,4.291992-31.130798,4.832001c-1.933609,0.098587-3.945297-0.5625-5.798798,0.494095    c-15.666107,0-31.334,0-47,0c-6.531303-1.068298-13.191505-0.560501-19.722702-1.578094    c-6.569298-1.023407-13.153297-2.052704-19.249504-4.902313c-2.6021-1.215897-5.111794-2.675797-5.070793-6.111389    c0.041496-3.443298,2.525394-5.019501,5.248001-5.903305c4.445793-1.444305,8.645096-4.557602,13.75-2.582001    c0.832596,6.371094,4.79689,9.359406,10.669998,11.483398c12.018494,4.346695,22.886696,3.859406,33.374001-4.195297    c4.096695-3.147507,4.135696-7.221695,5.064392-11.316406C126.132874,187.734573,129.929779,188.499176,133.69928,188.942566z"/><path class="st2" d="M96.433685,32.924969c4.330093-4.463398,9.597694-6.155798,15.765594-5.6733    c5.138695,0.4013,10.300797,0.537102,15.4561,0.675301c10.519501,0.2812,19.297791,4.345201,26.459991,11.991701    c0.773407,0.826099,2.197205,1.556599,1.795898,2.7817c-0.495193,1.5112-2.194397,1.298798-3.467789,1.278297    c-9.648499-0.156197-19.313507-0.7803-28.864304,1.273502c-3.247002,0.6987-6.651299,0.991699-9.711899,2.173298    c-5.474594,2.1147-9.454102,6.3657-10.009804,12.131802c-1.134697,11.784702-1.2929,23.530796,5.3125,34.340397    c2.8125,4.602501,6.859406,7.032204,11.329102,9.223602c10.694405,5.244102,21.709999,3.688499,32.723701,1.365204    c4.387695-0.925804,8.892593-1.635704,13.050797-3.214806c4.277298-1.625999,5.930603-0.958,5.207001,3.736305    c-0.681595,5.880898-0.294891,11.815399-1.818405,17.677696c-4.742188,18.253998-11.118088,23.457108-29.799789,24.764694    c-10.839798,0.758804-21.102501-2.241196-31.510696-4.045898c-5.970703-1.035202-8.67971-7.071289-11.16111-11.994095    c-5.502998-10.921898-7.888695-22.700203-9.425797-34.886803c-1.403297-11.124001-1.272499-22.191895-1.792-33.293396    c-0.392601-8.397503,2.620102-15.983902,4.423798-23.845703C91.044975,36.561169,94.168076,34.871269,96.433685,32.924969z"/><path class="st3" d="M96.433685,32.924969c-8.044907,7.486801-7.949203,17.7593-8.839806,27.431602    c-1.299805,14.113796,0.005806,28.303799,2.214806,42.200199c2.142593,13.486397,5.27739,27.009804,15.190392,37.614296    c1.143608,1.223602,2.208099,1.884796,3.719803,2.028305c10.339806,0.986298,20.346703,5.113297,30.906197,3.701202    c4.865295-0.651398,9.8125-0.577209,14.590805-2.572311c5.69339-2.376892,9.14949-6.463791,11.260803-11.8564    c2.918884-7.457993,4.25-15.315392,5.037094-23.262695c0.113297-1.142601-0.128906-2.367195,0.966797-3.202194    c1.70311,15.266594,1.207001,30.347702-1.328094,45.606491c-1.802795,10.851501-6.373108,21.371109-4.697311,32.826202    c0.513702,3.507797-1.50589,6.117096-5.685486,6.835907c-4.172913,0.718689-8.30571,0.628891-12.4375,0.449203    c-5.220703-0.224609-4.457108-5.122101-5.635803-8.249008c-1.153305-3.059601,0.901398-6.177704,0.829102-9.337906    c-0.098602-4.368195,4.148499-3.586899,6.304688-5.250992c2.443405-1.883804,5.592804-2.866196,7.450211-5.834    c-2.665009-2.057602-5.202209-0.080002-7.678696-0.083908c-8.152405-0.008789-16.273514,0.045914-24.322304-1.726593    c-7.288101-1.605499-9.661102,0.339798-11.056602,7.517593c-0.992203,5.09761-1.1875,10.121109-0.8535,15.292908    c0.564407,8.728592-4.460999,14.089905-13.314499,14.754898c-3.373001,0.252899-6.623001-0.373993-9.804703-1.439407    c-3.85939-1.290985-5.174797-3.700195-5.906197-8.000992c-1.789101-10.505905-0.724602-21.263702-3.330101-31.641602    c-0.357399-1.426804-0.334-2.971695-0.335899-4.462906c-0.017601-19.329086,0.3339-38.664993-0.117195-57.983391    c-0.347702-14.912102,2.072197-29.4189,6.126892-43.509304C87.540176,44.332668,88.275475,36.05777,96.433685,32.924969z"/><path class="st4" d="M69.38488,90.980667c0.040497,14.801704,0.061501,29.6045,0.131302,44.407196    c0.026894,5.645508,0.188995,11.267609,0.857895,16.905304c0.7789,6.5625-1.629799,8.281204-8.0341,6.427704    c-5.9156-1.711899-8.434597-5.130905-8.8965-11.452103c-0.5322-7.273499-2.1651-14.475601-1.816399-21.800797    c0.5205-10.938499,1.2798-21.866203,1.9897-32.793999c0.038101-0.589806,0.556198-1.148407,0.851101-1.720703    c3.079597,1.693398,6.065399-0.474602,9.112804-0.222603C65.511375,90.88987,67.482079,90.136871,69.38488,90.980667z"/><path class="st5" d="M179.582169,71.944069c1.701111,6.4291-1.257889,13.3022-8.368195,16.718201    c-12.000992,5.765602-24.606491,9.150398-38.098602,6.189499c-7.134796-1.564499-12.792992-5.796898-17.215897-11.283195    c-5.278297-6.548904-3.3955-21.397503,2.778404-26.376003c2.318298,1.722599,2.795898,4.387699,3.575195,6.912601    c3.175705,10.290497,8.903297,14.3638,19.748009,14.5718c7.1436,0.136696,14.172897-1.086998,21.289093-1.301804    C169.145569,77.199371,174.507874,74.831673,179.582169,71.944069z"/><path class="st6" d="M179.582169,71.944069c-2.457092,4.523903-7.08699,5.466301-11.39949,6.0532    c-10.021408,1.363304-20.127899,2.153297-30.268494,1.857399c-7.296906-0.211899-13.869209-5.543495-16.336006-13.163597    c-1.019493-3.148899-1.937492-6.331001-2.900299-9.498501c10.024391-2.095699,19.974602-5.084,30.343697-4.285702    c7.7686,0.598202,15.355499,2.452202,21.997116,6.816402C175.423981,62.61787,178.718872,66.476273,179.582169,71.944069z"/><path class="st7" d="M69.38488,90.980667c-4.111298,1.923805-8.835503,0.319305-13.016102,2.419899    c-2.087898,1.047806-1.442398-1.451195-1.900898-2.447296c0.2402-1.298798,0.495598-2.595703,0.7187-3.8974    c1.2286-7.168999,6.765198-10.434601,13.571796-8.135803c1.835999,0.619202,1.543503,1.892601,1.442902,3.169006    C69.96788,85.05587,69.661682,88.016769,69.38488,90.980667z"/><path class="st8" d="M162.87117,69.032867c-7.179688-0.692398-14.25-1.358398-21.316391-2.063896    c-2.259796-0.225601-3.695297-1.527901-3.990204-3.763702c-0.3311-2.510799,0.483398-4.6255,2.931595-5.743698    c2.941406-1.3437,6.128906-1.741699,9.244202-1.221703c4.883698,0.815502,9.767502,1.797401,14.517502,3.171402    c3.033203,0.877499,6.027405,2.440498,5.292999,6.621101C168.779373,70.42057,165.242279,68.497772,162.87117,69.032867z"/></g></g></svg>