<?xml version="1.0" ?><svg id="Layer_1" style="enable-background:new 0 0 231.039368 231.039368;" version="1.1" viewBox="0 0 231.039368 231.039368" xml:space="preserve" xmlns="http://www.w3.org/2000/svg" xmlns:xlink="http://www.w3.org/1999/xlink"><style type="text/css">
	.st0{fill:#000100;}
	.st1{fill-rule:evenodd;clip-rule:evenodd;fill:#373B3C;}
	.st2{fill-rule:evenodd;clip-rule:evenodd;fill:#237F18;}
	.st3{fill-rule:evenodd;clip-rule:evenodd;fill:#134D29;}
	.st4{fill-rule:evenodd;clip-rule:evenodd;fill:#134C28;}
	.st5{fill-rule:evenodd;clip-rule:evenodd;fill:#4A646E;}
	.st6{fill-rule:evenodd;clip-rule:evenodd;fill:#98C7DC;}
	.st7{fill-rule:evenodd;clip-rule:evenodd;fill:#237D1A;}
	.st8{fill-rule:evenodd;clip-rule:evenodd;fill:#FAFDFD;}
</style><g id="_x30_e49uk_1_"><g><path class="st0" d="M41.519688,140.990479c0-8.334,0-16.666,0-25c0.783199-8.752899,1.113197-17.535103,0.953098-26.308601    c-0.236298-12.992104,5.0303-20.044899,17.453102-21.979904c1.148399-0.178795,2.2617-0.684593,3.417999-0.721199    c7.384697-0.232895,7.4795,0.014603,8.653313-8.540596c1.338882-9.758701,4.399384-19.068302,9.653282-27.124502    c5.545906-8.502899,13.5606-14.764099,24.574203-14.753899c10.483398,0.0103,21.168999-1.514601,31.414093,0.646    c16.292999,3.437,29.764709,11.478498,36.380905,27.939501c0.701096,1.744099,1.562515,3.328598,3.062515,4.471699    c7.100479,5.410099,11.125,12.599098,12.437485,21.371502c0,4,0,8,0,12c-0.857483,4.5821-2.450195,8.7481-5.277405,12.615295    c-2.498001,3.4179-1.816391,7.849602-0.941391,11.615204c3.488312,15.007797,0.811493,29.707001-1.497101,44.464798    c-1.3564,8.673904-2.97551,17.307693-4.030197,26.029297c-0.683609,5.654297-2.008804,11.111404-5.3116,15.904297    c-2.91011,4.9375-7.354401,6.902405-12.941406,6.798904c-3.481384-0.064499-6.965805-0.001999-10.448196-0.003891    c-10.080109-0.007904-12.636703-1.716812-16.502899-10.994202c-1.737289-4.153305-2.508804-8.488312-2.487289-12.996109    c0.009689-2.076096-0.400421-4.302689-3.054718-4.171799c-2.683594,0.130798-2.006897,2.599609-2.072281,4.246002    c-0.185516,4.593796,0.287086,9.228607-1.023415,13.742203c-1.800804,9.916-8.701202,16.798904-19.113297,18.732498    c-9.371101,1.740204-18.246101-0.3965-26.502007-4.669998c-3.817284-1.974609-5.673798-5.927704-6.125-10.320297    c-0.101494-6.133804-1.190399-12.192398-1.398399-18.326202c-0.095695-2.800705-1.006798-5.5009-4.615196-5.185501    c-7.070301,0.619095-13.200199-1.347702-17.951199-6.617203c-4.830101-5.3535-5.4473-12.25-6.193401-19.025406    C41.890785,143.545181,42.443485,142.168274,41.519688,140.990479z"/><path class="st1" d="M133.688583,188.94458c2.692398,7.3311,7.377899,11.348694,15.727493,10.145493    c3.408203-0.491196,6.945404-0.177704,10.419006-0.078094c5.018494,0.1465,9.020508-1.501907,11.525406-6.064407    c6.72171,1.171799,13.914993,1.276306,18.159195,8.042908c0,1,0,2,0,3c-1.267593,3.25-4.032303,4.584991-7.071304,5.667999    c-10.073303,3.589798-20.577179,4.302704-31.121094,4.834991c-1.604507,0.081009-3.294006-0.506897-4.807602,0.497009    c-16,0-32,0-48,0c-6.531296-1.068298-13.191399-0.559509-19.722694-1.57811    c-6.568405-1.023392-13.152306-2.053696-19.249004-4.902298c-2.601597-1.215897-5.112297-2.675797-5.071297-6.111389    c0.040997-3.443298,2.525398-5.018509,5.247997-5.902298c4.446304-1.445313,8.645508-4.558609,13.75-2.582001    c0.871101,6.263596,4.656303,9.304596,10.544998,11.445297c12.121101,4.409195,23.041,3.884689,33.5839-4.211899    c4.068398-3.125,4.037201-7.209,4.980499-11.262711C126.130981,187.740479,129.922989,188.498276,133.688583,188.94458z"/><path class="st2" d="M90.406387,38.899677c4.643501-7.876902,13.8965-12.340302,22.6035-11.373001    c4.608398,0.5117,9.298798,0.387199,13.951195,0.384201c12.553703-0.008301,22.185509,5.610397,30.728508,16.067398    c-3.766602,0-6.655304,0.1231-9.531311-0.0219c-10.838791-0.546898-21.53508,0.231903-32.079994,2.9487    c-7.453201,1.920403-12.265701,7.632801-12.528397,15.321301c-0.3564,10.477001-0.557602,20.797298,4.961899,30.490704    c5.134796,9.013695,13.5411,11.842796,22.652412,13.2519c11.902283,1.840897,23.341782-1.683502,34.74408-4.424805    c5.6866-1.367096,5.595703-1.745094,5.587921,4.442406c0.222687,8.714897-1.714813,17.033195-4.363312,25.274391    c-2.757813,8.5811-9.083908,13.129898-17.309509,14.803802c-9.305695,1.894501-18.788101,2.561508-28.148491-0.316498    c-1.899406-0.583893-3.940407-1.080002-5.889603-0.992096c-10.264702,0.466797-15.121086-6.380905-19.111298-14.13681    c-5.399506-10.497993-7.906303-21.813393-8.653404-33.552696c-0.348595-5.473595-1.983391-10.753899-2.014595-16.318398    C85.925888,66.617477,85.492287,52.489975,90.406387,38.899677z"/><path class="st3" d="M90.406387,38.899677c0.662102,3.216801-0.361305,6.3013-0.986305,9.349098    c-3.1446,15.334999-2.302795,30.567898-0.276398,45.991703c0.906204,6.8946,2,13.701195,3.284203,20.5215    c1.867195,9.910194,6.6269,18.232391,12.910095,25.902405c1.161217,1.417892,2.632805,1.552689,3.967804,1.651291    c9.865196,0.733398,19.297806,4.723709,29.405304,3.708008c5.922791-0.594711,11.782196-0.8535,17.314392-3.674805    c4.787094-2.441406,7.851608-5.932602,9.519608-10.9189c2.533188-7.566399,4.398392-15.261703,5.02919-23.239304    c0.058609-0.753899,0.603607-1.469696,0.921921-2.204094c1.83989,10.240295,0.970688,20.531296,0.67189,30.824196    c-0.455109,15.611404-7.511703,30.220703-6.692413,46.057693c0.294006,5.692307-1.574188,7.051712-7.150391,7.186508    c-2.498001,0.060501-4.999008,0.019501-7.497009,0.019501c-7.25,0.000992-8.506897-0.792999-9.135788-7.773407    c-0.320297-3.558594,0.559601-7.230499,0.946289-10.845688c0.166-1.550812,1.673813-1.398514,2.650421-1.876007    c4.17189-2.039993,8.07518-4.465805,11.445282-8.118195c-4.845703,0.781296-9.648392,0.433594-14.44339,0.551788    c-6.009705,0.147507-11.911102-0.414993-17.783211-1.75589c-2.060493-0.470703-4.345688-0.4189-6.454094-0.108398    c-2.612305,0.385788-4.245102,1.707092-4.706001,4.851593c-0.875,5.966797-0.888702,11.916-0.839897,17.894501    c0.080093,9.912094-7.767502,16.546906-17.740204,14.940506c-1.632797-0.262711-3.232399-0.753006-4.834999-1.18071    c-4.461899-1.189499-6.451103-3.467789-6.609299-8.714798c-0.303703-10.078201-1.633804-20.162201-3.129898-30.154297    c-0.775406-5.178802-0.509804-10.289093-0.572289-15.419998c-0.165001-13.494095-0.531212-27.013603,0.058586-40.483398    c0.714897-16.343704,0.365303-32.832504,4.906296-48.840805C86.000084,48.061775,88.627083,43.676075,90.406387,38.899677z"/><path class="st4" d="M69.375084,91.904579c0.048904,15.327095,0.012703,30.655296,0.191399,45.980492    c0.068405,5.801712,0.558601,11.602509,1,17.392502c0.219803,2.892609-0.995094,3.660202-3.746994,3.736404    c-8.719803,0.243103-13.125004-4.089905-14.152401-15.173904c-1.335892-14.404297-1.266602-28.831993,0.714897-43.193298    c0.402302-2.916-0.799789-6.0186,1.022404-8.758797c3.3242,0.046898,6.464897-1.379898,9.807594-1.215805    C66.014786,90.761978,67.880989,90.541275,69.375084,91.904579z"/><path class="st5" d="M179.57428,71.949478c1.724701,6.374001-1.383698,13.410194-8.344696,16.732399    c-11.870102,5.6661-24.256805,8.907303-37.637695,6.283195c-14.279305-2.800697-23.736305-16.808594-20.074203-30.216293    c0.837898-3.071701,2.085899-5.983402,5.168999-7.581505c2.381798,1.2397,2.614204,3.6875,3.260704,5.878403    c3.3955,11.518097,8.837891,15.602997,20.968704,15.576698c8.628998-0.0186,17.163101-1.200203,25.712891-2.202202    C172.714981,75.941673,175.916077,73.412376,179.57428,71.949478z"/><path class="st6" d="M179.57428,71.949478c-2.45108,4.538101-7.093689,5.517601-11.402298,6.027397    c-9.042999,1.072205-18.138702,1.723602-27.274399,2.004799c-10.680695,0.329102-18.091797-6.864197-19.8965-15.207497    c-0.558601-2.581501-1.531197-5.0737-2.3144-7.606903c10.030205-2.052696,19.972603-5.045399,30.344704-4.262199    c7.781204,0.587402,15.346695,2.4809,21.992203,6.8242C175.433685,62.612076,178.73349,66.471474,179.57428,71.949478z"/><path class="st7" d="M69.375084,91.904579c-4.252884,0.173798-8.593697-0.4189-12.644497,1.488297    c-1.556599,0.732399-2.06839-0.199196-2.3242-1.503899c0.101498-1.488304,0.087898-2.994202,0.326199-4.460999    c1.2421-7.661102,6.632801-10.835899,14.078098-8.505806c1.839806,0.575203,1.666,1.882805,1.571304,3.125    C70.12999,85.33918,69.720787,88.619377,69.375084,91.904579z"/><path class="st8" d="M162.531387,69.099876c-7.080109-0.707001-14.269608-1.4272-21.460999-2.141098    c-3.098602-0.307602-3.57811-2.590805-3.616196-5.012703c-0.049805-3.132298,1.975586-5.088898,4.715897-5.4468    c8.1884-1.069298,16.074188,0.826202,23.77919,3.398502c2.84671,0.950199,4.209,3.246098,3.609406,6.286602    C168.709091,70.498276,165.121201,68.441673,162.531387,69.099876z"/></g></g></svg>