<?xml version="1.0" ?><svg id="Layer_1" style="enable-background:new 0 0 231.039368 231.039368;" version="1.1" viewBox="0 0 231.039368 231.039368" xml:space="preserve" xmlns="http://www.w3.org/2000/svg" xmlns:xlink="http://www.w3.org/1999/xlink"><style type="text/css">
	.st0{fill:#000100;}
	.st1{fill-rule:evenodd;clip-rule:evenodd;fill:#232323;}
	.st2{fill-rule:evenodd;clip-rule:evenodd;fill:#53FDD7;}
	.st3{fill-rule:evenodd;clip-rule:evenodd;fill:#35A7C0;}
	.st4{fill-rule:evenodd;clip-rule:evenodd;fill:#373B3C;}
	.st5{fill-rule:evenodd;clip-rule:evenodd;fill:#4A646E;}
	.st6{fill-rule:evenodd;clip-rule:evenodd;fill:#98C7DC;}
	.st7{fill-rule:evenodd;clip-rule:evenodd;fill:#54F9D6;}
	.st8{fill-rule:evenodd;clip-rule:evenodd;fill:#F9FDFC;}
</style><g id="OmESqR_1_"><g><path class="st0" d="M125.96389,16.45484c2.999992,0,5.999992,0,8.999992,0    c13.921906,2.027399,25.8862,8.078199,33.786606,19.714899c4.894592,7.210899,10.285202,14.039001,15.096191,21.214802    c7.877014,11.748096,8.648911,24.514698,0.208511,36.819401c-2.721695,3.967697-2.260696,8.4795-1.336411,12.547798    c3.535614,15.5625,0.522903,30.722702-1.810989,46.005905c-1.202209,7.873993-2.826202,15.684494-3.651901,23.616196    c-0.626495,6.020493-2.001007,11.803696-5.493698,16.901398c-2.939911,4.9189-7.438904,6.719696-12.968201,6.607407    c-3.463898-0.069412-6.931702-0.003006-10.39801-0.005905c-9.985794-0.009796-12.519485-1.716797-16.388092-11.007797    c-1.737793-4.151398-2.503494-8.486298-2.483002-12.992203c0.009796-2.076202-0.409592-4.299805-3.061996-4.159195    c-2.674301,0.141602-1.998001,2.608398-2.0634,4.254898c-0.183205,4.59079,0.286598,9.223602-1.023499,13.736298    c-0.374001,12.103592-10.664001,16.568405-19.121605,18.612305c-9.251396,2.235397-18.225601-0.279205-26.487801-4.548813    c-3.821198-1.974594-5.678696-5.928696-6.131294-10.323196c-0.101601-6.133789-1.190903-12.192398-1.399399-18.326202    c-0.094704-2.800797-1.005905-5.501892-4.614799-5.185501c-7.069805,0.618103-13.199703-1.349594-17.951599-6.618195    c-4.829105-5.354492-5.445305-12.250992-6.192406-19.026398c-0.141594-1.283203,0.410603-2.660095-0.513199-3.837906    c0-8.333893,0-16.665993,0-24.999992c0.765102-8.740204,0.974102-17.5019,0.997604-26.269501    c0.037098-13.971703,3.612297-19.776398,17.354-21.634804c9.467693-1.281197,12.274395-5.419899,13.065395-13.960899    c0.806602-8.706997,4.505402-16.922798,9.374001-23.975597c4.589897-6.647402,11.181198-11.792002,19.962402-12.643501    C109.799789,16.65604,117.904289,17.60824,125.96389,16.45484z"/><path class="st1" d="M100.877991,17.413839c0.1689-0.3076,0.197197-0.6269,0.085899-0.959c8.333496,0,16.666496,0,25,0    c-3.727005,2.095699-7.758301,0.721701-11.638199,0.9356C109.856491,17.636539,105.361893,17.425539,100.877991,17.413839z"/><path class="st2" d="M89.800293,38.357239c5.304695-6.705099,11.306694-12.235399,20.711899-11.3496    c9.9991,0.940401,20.249603-1.2549,29.998596,3.1679c6.375504,2.892599,11.634293,6.814501,16.686005,13.308599    c-3.643509,0-6.392105,0.1856-9.108398-0.0312c-11.376907-0.909199-22.562508,0.269501-33.557106,3.131802    c-6.218796,1.618198-10.381798,6.116199-11.144096,12.188499c-1.413506,11.263702-1.339806,22.539101,4.420494,33.029297    c5.8974,10.738304,16.069809,13.404305,26.904305,14.0625c10.382294,0.630905,20.474091-2.174797,30.434509-4.841797    c6.025391-1.614296,5.943893-1.919899,5.733383,4.462898c0.256409,8.373001-1.495102,16.390602-3.983383,24.339806    c-3.116714,9.960999-10.223618,14.303696-20.048813,16.212891c-13.205597,2.564499-25.789101-0.988297-38.5103-2.960892    c-6.161598-0.955109-9.008301-6.827209-11.466797-11.689499c-5.506798-10.891602-8.015099-22.685501-9.613701-34.851501    c-1.374001-10.455101-1.6558-20.843803-1.773003-31.3125c-0.080994-7.210003,0.320801-14.2686,3.232002-21.017601    C89.491692,42.40704,89.337387,40.29274,89.800293,38.357239z"/><path class="st3" d="M89.800293,38.357239c0.255394,2.834-0.019005,5.575199-0.679703,8.382801    c-3.631798,15.434601-2.5317,30.869099-0.641602,46.475597c0.9991,8.249001,2.463898,16.305603,4.403404,24.322205    c2.099098,8.676796,6.316399,16.260803,12.192795,22.967804c0.921898,1.051788,2.070305,1.058594,3.151901,1.154297    c10.017097,0.886703,19.675301,4.785202,29.898903,3.753891c5.55809-0.560501,11.128891-0.738297,16.494598-3.061493    c5.190491-2.248001,8.403397-5.905304,10.161194-10.927704c2.63031-7.516594,4.720703-15.196297,5.198196-23.214897    c0.059113-0.993103-0.013199-2.018501,0.899902-2.723602c1.810104,13.402306,1.245605,26.68261-0.413589,40.134804    c-1.476501,11.972595-6.668411,23.294891-5.336899,35.792892c0.694901,6.527405-1.465302,7.943405-8.212402,8.452209    c-1.989212,0.149399-3.991211,0.180603-5.987808,0.186493c-7.73819,0.025406-9.709396-1.644501-9.990189-9.375    c-0.118607-3.2715,0.740189-6.573196,1.095688-9.867203c0.183105-1.697296,1.675308-1.320297,2.626511-1.753891    c4.637695-2.115204,8.676697-4.89061,11.656693-8.274399c-9.743591,0.716797-19.10939,1.3349-28.400391-0.327209    c-16.678703-2.984299-14.882309,0.325211-16.144508,13.885803c-0.245102,2.631805-0.002899,5.313507,0.087402,7.969696    c0.299797,8.814499-3.810997,13.811508-12.540001,14.867203c-2.788597,0.336899-5.607498,0.178711-8.4151-0.550797    c-4.842796-1.257797-7.240196-3.245102-8.042496-9.154297c-4.294907-31.628906-3.6465-63.355507-3.682602-95.120102    c-0.015602-14.102501,2.233398-27.717804,5.362305-41.272503C85.561089,46.669739,88.006889,42.587738,89.800293,38.357239z"/><path class="st4" d="M170.803787,192.423645c3.335907,2.494095,7.688904,2.126892,11.254807,3.994095    c0.851593,0.446304,1.849594,0.610397,2.705597,1.049805c1.926804,0.989288,4.101089,2.194397,4.067398,4.510788    c-0.033203,2.281204-2.139694,3.546906-4.107895,4.484406c-5.788605,2.755798-12.059601,3.789001-18.281311,4.919907    c-19.46579,3.538101-39.144493,3.380798-58.806091,3.027298c-15.095703-0.2724-30.0186-2.395508-44.6026-6.2285    c-2.972603-0.781204-7.755302-1.270508-7.975101-5.970703c-0.235298-5.027298,4.616199-4.585907,7.6026-6.013702    c3.233898-1.5439,6.754398-2.183594,10.258305-2.81929c0.930595,5.942398,4.223099,9.206985,10.089798,11.273392    c9.627495,3.391602,18.790993,4.465805,28.230995-0.262695c6.330498-3.169907,10.870598-7.380798,10.786598-15.037109    c3.549301-2.154297,7.347198-1.388596,11.117706-0.94429c2.653793,7.38179,7.418396,11.282196,15.71579,10.1474    c3.413605-0.466705,6.944809-0.175705,10.418411-0.07811C164.290085,198.616943,168.299393,196.988037,170.803787,192.423645z"/><path class="st3" d="M68.830589,90.490036c-0.321297,16.964806-0.496094,33.929703,0.292,50.886703    c0.154305,3.319305,0.531204,6.627899,0.751999,9.944305c0.453598,6.817398-2.555199,9.219788-8.858398,6.575195    c-4.495697-1.885696-7.563499-4.585907-8.338898-10.501907c-2.379402-18.167999-0.8335-36.185593,0.411098-54.25489    c0.042-0.614204,0.466301-1.202103,0.712399-1.803703C58.799389,90.850342,63.735889,89.268341,68.830589,90.490036z"/><path class="st5" d="M179.014191,71.41774c1.727097,6.398499-1.248001,13.2696-8.356003,16.714897    c-12.0009,5.820305-24.594193,9.046799-38.115204,6.197205c-14.043892-2.960899-23.189896-16.901299-19.585892-30.120102    c0.837402-3.071301,2.089294-5.983398,5.179199-7.5732c2.209396,1.123001,2.523895,3.3545,3.131798,5.398399    c3.6353,12.224598,8.784203,15.980503,21.597206,16.091801c6.482391,0.057602,12.856888-1.096703,19.316391-1.324203    C168.218781,76.589638,173.781784,74.400238,179.014191,71.41774z"/><path class="st6" d="M179.014191,71.41774c-2.448196,4.539101-7.088898,5.4785-11.397003,6.037102    c-9.033203,1.169998-18.130295,1.971695-27.276794,1.901398c-10.6978-0.083-16.968803-4.801804-19.876007-15.116203    c-0.7192-2.550797-1.549301-5.069298-2.328094-7.603497c10.0298-2.058601,19.973099-5.033199,30.346207-4.275398    c7.619095,0.557598,15.02829,2.4473,21.57959,6.560497C174.653381,61.80444,178.155792,65.731239,179.014191,71.41774z"/><path class="st7" d="M68.830589,90.490036c-4.389198,1.826202-9.4487,0.019501-13.762199,2.577103    c-0.742699,0.440498-0.922897-1.059502-1.267601-1.7314c0.117706-1.154297,0.1758-2.318398,0.362301-3.460899    c1.442406-8.845703,5.3643-11.454102,14.144604-9.736397c1.820801,0.357498,1.547295,1.369194,1.458,2.455093    C69.49469,83.89624,69.147987,87.191238,68.830589,90.490036z"/><path class="st8" d="M159.336487,68.449036c-5.471695,1.039001-10.608398-1.900398-16.139206-1.292    c-3.133789,0.344704-6.786087-1.028297-6.830597-4.936497c-0.044403-3.835999,2.550308-5.921898,6.642105-6.392601    c7.0215-0.807598,13.661194,0.929703,20.340393,2.472603c2.110306,0.487297,3.870605,1.837898,5.348099,3.501999    c1.260712,1.419899,1.387711,2.890598,0.664108,4.595699c-0.688507,1.621101-1.865799,2.137703-3.544998,2.071297    C163.659683,68.384537,161.496582,68.449036,159.336487,68.449036z"/></g></g></svg>