<?xml version="1.0" ?><svg id="Layer_1" style="enable-background:new 0 0 231.039368 231.039368;" version="1.1" viewBox="0 0 231.039368 231.039368" xml:space="preserve" xmlns="http://www.w3.org/2000/svg" xmlns:xlink="http://www.w3.org/1999/xlink"><style type="text/css">
	.st0{fill:#010000;}
	.st1{fill-rule:evenodd;clip-rule:evenodd;fill:#373B3C;}
	.st2{fill-rule:evenodd;clip-rule:evenodd;fill:#232323;}
	.st3{fill-rule:evenodd;clip-rule:evenodd;fill:#EA7F00;}
	.st4{fill-rule:evenodd;clip-rule:evenodd;fill:#B14100;}
	.st5{fill-rule:evenodd;clip-rule:evenodd;fill:#AE4001;}
	.st6{fill-rule:evenodd;clip-rule:evenodd;fill:#4B646E;}
	.st7{fill-rule:evenodd;clip-rule:evenodd;fill:#98C7DC;}
	.st8{fill-rule:evenodd;clip-rule:evenodd;fill:#E77E01;}
	.st9{fill-rule:evenodd;clip-rule:evenodd;fill:#9CC5CF;}
	.st10{fill-rule:evenodd;clip-rule:evenodd;fill:#FBFDFD;}
</style><g id="_x31_yLTHb_1_"><g><path class="st0" d="M189.801971,70.464134c0,4,0,8,0,12c-0.858398,4.5811-2.447296,8.7481-5.275406,12.617203    c-2.498093,3.417-1.816391,7.847694-0.941391,11.613297c3.48819,15.008804,0.810501,29.707008-1.498108,44.465797    c-1.357391,8.674805-2.974594,17.307602-4.029297,26.030304c-0.683594,5.654297-2.009705,11.111298-5.3125,15.902298    c-2.910095,4.9375-7.354507,6.902405-12.941406,6.800797c-3.4814-0.064392-6.96579-0.001892-10.449188-0.003891    c-10.080109-0.007797-12.638702-1.718704-16.503906-10.99411c-1.738297-4.153397-2.508804-8.488297-2.488297-12.996094    c0.009796-2.075195-0.399399-4.302795-3.052704-4.171906c-2.681702,0.132813-2.005898,2.602509-2.071297,4.248001    c-0.184601,4.592804,0.287094,9.226608-1.024399,13.740311c-1.798897,9.919891-8.726601,16.820297-19.140701,18.736298    c-9.380798,1.726593-18.267502-0.394501-26.519501-4.705109c-3.808601-1.990189-5.661102-5.953094-6.087898-10.357391    c-0.156204-6.148407-1.17379-12.230499-1.4179-18.378906c-0.114304-2.873093-1.259804-4.854492-4.786201-5.156296    c-16.614201-1.425705-23.015598-7.957001-24.387691-24.787109c-1.244106-15.265594-0.415001-30.531189,0.36919-45.788994    c0.1884-3.656296,0.058601-7.316399,0.1572-10.972702c0.293903-10.845695,4.678703-19.048798,16.524403-20.868095    c1.964798-0.301804,3.890598-1.298904,5.852501-1.151398c5.323296,0.398399,6.866295-2.613304,7.334999-7.177704    c0.789101-7.684601,3.7061-14.744198,6.321297-21.958099c3.204102-8.836901,9.749001-14.0009,17.258804-18.509701    c2.032196-1.2197,4.323196-1.668999,6.698196-1.6612c8.137703-0.2988,16.295898,0.6241,24.411201-0.5156c3,0,6,0,9,0    c13.846603,2.131901,25.888596,8.121099,33.650299,19.773499c4.9151,7.378902,9.815491,14.638603,15.546906,21.3955    C188.066574,61.247334,188.813675,65.953438,189.801971,70.464134z"/><path class="st1" d="M189.801971,203.464142c-6.302795,5.635788-14.406296,6.457993-22.142609,7.860397    c-18.431686,3.341797-37.08989,3.399399-55.758797,3.172791c-16.117195-0.197189-31.946297-2.413101-47.608383-6.064392    c-0.16111-0.038101-0.380913,0.025391-0.488312-0.0625c-2.605499-2.134796-7.712898-1.444397-7.909199-6.167999    c-0.208-5.011703,4.622097-4.582001,7.612297-6c3.233402-1.535202,6.748104-2.185501,10.250004-2.816406    c0.861397,6.273407,4.655296,9.3125,10.546898,11.449203c12.117203,4.394501,23.037102,3.882797,33.582001-4.216797    c4.072311-3.126907,4.023499-7.211899,4.9786-11.257797c3.545898-2.148407,7.337799-1.392609,11.1035-0.941406    c2.673798,7.361298,7.412094,11.300797,15.7285,10.142593c3.411102-0.476593,6.945297-0.177795,10.417999-0.079102    c5.015594,0.141602,9.023392-1.495087,11.529297-6.060593c6.722595,1.169006,13.914993,1.275406,18.158203,8.042007    C189.801971,201.464142,189.801971,202.464142,189.801971,203.464142z"/><path class="st2" d="M101.715973,17.423134c0.169899-0.306599,0.197296-0.6269,0.085999-0.959c8.3339,0,16.666,0,25,0    c-3.7276,2.0938-7.758789,0.7227-11.638702,0.9356C110.694473,17.645834,106.200371,17.434835,101.715973,17.423134z"/><path class="st3" d="M90.635872,38.354736c5.443398-6.836903,11.650398-12.513601,21.2071-11.443302    c9.6689,1.083,19.621994-1.122099,29.054703,3.0849c6.513596,2.9053,11.983398,6.798901,16.527298,12.807701    c-6.031204,1.5117-11.661102,0.423798-17.218704,0.379799c-8.570404-0.067299-16.886795,1.440502-25.089897,3.4991    c-5.988304,1.503902-10.084,5.977501-10.832001,11.892502c-1.427803,11.265697-1.359398,22.479496,4.214806,33.087902    c4.946297,9.417999,13.619194,12.408195,22.905289,13.903397c11.777298,1.8964,23.120102-1.750999,34.408203-4.485397    c6.164993-1.492203,6.067398-1.8965,5.927704,4.400398c0.17189,8.183601-1.502899,16.033195-3.8134,23.857407    c-2.767609,9.367188-9.053787,14.482391-18.298904,16.251999c-8.705994,1.666-17.449203,2.369095-26.156197-0.2491    c-2.225601-0.6689-4.619202-1.072205-6.890602-1.020508c-11.300797,0.255905-16.359398-7.300705-20.376999-16.060501    c-4.763702-10.385696-6.415001-21.519501-8.150398-32.738297c-1.5644-10.117203-1.569298-20.179703-1.726601-30.308601    c-0.112297-7.209,0.319397-14.263699,3.230499-21.0117C90.333183,42.405533,90.178871,40.290333,90.635872,38.354736z"/><path class="st4" d="M90.635872,38.354736c0.2715,2.833099-0.011696,5.571297-0.6689,8.380898    c-3.612305,15.428699-2.692398,30.875-0.601601,46.458c1.0811,8.061501,2.433601,15.995102,4.266602,23.903297    c2.070297,8.925804,6.53521,16.474602,12.294998,23.418007c0.905205,1.089798,2.081001,1.027298,3.156212,1.132797    c10.490189,1.039093,20.648384,4.873993,31.380882,3.796906c4.939407-0.495102,9.802704-1.172913,14.544907-2.9561    c5.6465-2.123001,8.96579-6.104507,10.779297-11.557602c2.513702-7.557602,4.666992-15.206001,5.080093-23.236305    c0.038101-0.750999,0.569305-1.476601,0.872009-2.212898c1.819397,14.095695,1.139694,28.039093-0.819305,42.155304    c-1.588882,11.446289-6.6035,22.361298-5.045883,34.345688c0.602478,4.641602-1.874008,7.960907-7.309616,7.857407    c-2.154297-0.041-4.314392,0.311508-6.472595,0.324203c-7.7686,0.045898-11.291-4.370102-10.267609-12.186508    c0.666-5.080093,1.688507-9.298798,7.519501-11.055695c2.8535-0.860306,5.210999-3.366196,8.457108-5.580994    c-3.611404-1.3116-6.251999,0.110291-8.898499,0.111298c-8.329102,0.002899-16.609406-0.076202-24.837906-1.808609    c-7.038994-1.483398-9.298798,0.589905-10.642494,7.566406c-0.989304,5.134796-0.929703,10.205093-0.724701,15.349594    c0.349701,8.851608-4.850502,14.360397-13.8759,14.692398c-1.971703,0.073212-3.9991-0.127899-5.932701-0.534195    c-7.992104-1.678696-7.888588-2.179703-9.097588-10.164993c-4.685616-30.929703-3.779312-62.044006-3.822311-93.155304    c-0.019501-14.400398,2.083-28.406204,5.4981-42.2598C86.55777,46.720036,88.878067,42.606735,90.635872,38.354736z"/><path class="st5" d="M69.676971,90.483734c0.070297,16.957001,0.076103,33.914001,0.255798,50.869095    c0.046898,4.47261,0.571304,8.945313,0.985413,13.407211c0.230385,2.480499-0.515709,3.498993-3.227608,3.639694    c-8.568302,0.443298-12.634705-3.425797-14.084003-12.093796c-2.9716-17.78421-0.640598-35.459007,0.2813-53.175804    c0.0312-0.607399,0.484402-1.191399,0.742199-1.787102C59.633972,90.859634,64.575371,89.282532,69.676971,90.483734z"/><path class="st6" d="M179.869263,71.414337c1.69931,6.424797-1.264587,13.301796-8.370087,16.721695    c-12.004913,5.779305-24.61911,9.140602-38.111313,6.186501c-7.135681-1.5625-12.792992-5.800797-17.209991-11.299797    c-5.286102-6.582001-3.405205-21.3848,2.792999-26.379902c2.211899,1.122101,2.528305,3.356503,3.136696,5.402401    c3.637703,12.235298,8.776405,16.006798,21.624001,16.077103c6.976608,0.039101,13.863297-1.107407,20.832108-1.2939    C170.112473,76.679031,175.005066,73.909431,179.869263,71.414337z"/><path class="st7" d="M179.869263,71.414337c-3.317291,5.342796-9.012695,6.034195-14.333893,6.610397    c-8.068405,0.875-16.221695,1.1269-24.344803,1.279297c-10.678696,0.201103-17.051697-4.805695-19.893494-15.053696    c-0.708-2.553802-1.547897-5.073299-2.326202-7.607502c6.075195-1.548798,12.229492-2.660099,18.4561-3.371098    c2.674805-0.2509,2.200211,1.833,2.496994,3.344799c-0.058594,1.337898-0.65329,2.550701-0.971695,3.832001    c-0.645508,2.5937,0.425797,4.486301,2.932693,4.806599c8.352509,1.071297,16.706009,2.441399,25.183609,1.652397    c1.020493-0.095695,1.830994-0.7285,2.5224-1.470695c1.675797-0.964905,0.285202-5.025402,3.966797-3.962902    C177.262863,63.770836,179.090973,67.259033,179.869263,71.414337z"/><path class="st8" d="M69.676971,90.483734c-4.378899,1.892502-9.4561,0.0019-13.767601,2.580002    c-0.740299,0.443398-0.959999-1.029305-1.279301-1.720703c0.150402-1.306595,0.243111-2.623001,0.460903-3.9179    c1.407207-8.357498,5.565498-11.016602,13.887695-9.199295c2.054703,0.447296,1.663101,1.743195,1.583,2.933594    C70.34877,84.272736,69.981567,87.376236,69.676971,90.483734z"/><path class="st9" d="M138.797073,57.460236c-0.094803-1.513702,0.4189-3.227501-1.370102-4.188499    c13.218704-2.443302,25.461899-0.586903,36.130798,8.202198c-3.076202,0.429699-0.656204,4.028301-2.860306,4.961903    c-1.930695-4.444302-5.332993-6.463902-10.059601-7.748001C153.337067,56.704433,146.144669,56.636036,138.797073,57.460236z"/><path class="st10" d="M138.797073,57.460236c6.376892-3.1474,13.025391-2.089802,19.420898-0.5644    c2.732391,0.652298,5.808594,0.4785,8.334,2.391598c2.466797,1.869102,4.824203,3.559502,4.146393,7.148403    c-1.093689,0.901398-1.833893,2.178696-3.660095,2.059601c-7.956085-0.5205-15.966797-0.507805-23.869202-1.439507    C136.823364,66.309837,135.844864,63.521736,138.797073,57.460236z"/></g></g></svg>