<?xml version="1.0" ?><svg id="Layer_1" style="enable-background:new 0 0 231.039368 231.039368;" version="1.1" viewBox="0 0 231.039368 231.039368" xml:space="preserve" xmlns="http://www.w3.org/2000/svg" xmlns:xlink="http://www.w3.org/1999/xlink"><style type="text/css">
	.st0{fill:#010001;}
	.st1{fill-rule:evenodd;clip-rule:evenodd;fill:#373B3C;}
	.st2{fill-rule:evenodd;clip-rule:evenodd;fill:#232323;}
	.st3{fill-rule:evenodd;clip-rule:evenodd;fill:#E752BE;}
	.st4{fill-rule:evenodd;clip-rule:evenodd;fill:#A728B3;}
	.st5{fill-rule:evenodd;clip-rule:evenodd;fill:#A628B2;}
	.st6{fill-rule:evenodd;clip-rule:evenodd;fill:#4B646E;}
	.st7{fill-rule:evenodd;clip-rule:evenodd;fill:#98C7DD;}
	.st8{fill-rule:evenodd;clip-rule:evenodd;fill:#E453BD;}
	.st9{fill-rule:evenodd;clip-rule:evenodd;fill:#9CC5CF;}
	.st10{fill-rule:evenodd;clip-rule:evenodd;fill:#9E2E9E;}
	.st11{fill-rule:evenodd;clip-rule:evenodd;fill:#FBFDFD;}
</style><g id="ftsWOx_1_"><g><path class="st0" d="M189.801956,70.463348c0,4,0,8,0,12c-0.858398,4.581001-2.448196,8.748497-5.275406,12.616699    c-2.497986,3.417496-1.817398,7.848099-0.941391,11.614197c3.488297,15.008301,0.810501,29.707108-1.498001,44.465408    c-1.357498,8.675293-2.974701,17.30809-4.029297,26.030701c-0.683609,5.654297-2.009796,11.111389-5.3125,15.90239    c-2.910202,4.9375-7.354507,6.902298-12.941406,6.798798c-3.481491-0.0625-6.966797,0-10.449295-0.001999    c-10.079987-0.007797-12.638596-1.718689-16.503906-10.996002c-1.738297-4.15239-2.508789-8.488297-2.488297-12.994186    c0.009796-2.076202-0.399399-4.304703-3.052696-4.171906c-2.682602,0.132797-2.005798,2.601593-2.072304,4.248093    c-0.183495,4.591812,0.287209,9.226501-1.023399,13.740204c-1.798798,9.919907-8.726601,16.820297-19.140602,18.736298    c-9.380898,1.726608-18.267593-0.394501-26.519493-4.705002c-3.808601-1.990295-5.661201-5.953201-6.087906-10.357498    c-0.156296-6.148392-1.172897-12.230392-1.417999-18.378891c-0.113297-2.873001-1.259796-4.855408-4.785194-5.158203    c-16.615196-1.423798-23.015602-7.955002-24.388603-24.785599c-1.244198-15.266098-0.4151-30.5308,0.369102-45.788605    c0.189499-3.656197,0.058598-7.316895,0.158199-10.973595c0.292999-10.844704,4.6777-19.048401,16.523399-20.867203    c1.964901-0.301804,3.890705-1.299301,5.852596-1.152298c5.324203,0.399895,6.858406-2.613804,7.337906-7.177303    c0.788994-7.507298,3.6035-14.4258,6.118095-21.499001c3.1436-8.842798,9.504898-14.1724,17.0196-18.730999    c2.186508-1.326099,4.587898-1.893499,7.137703-1.898399c8.137695-0.299801,16.295898,0.623499,24.411095-0.5161c3,0,6,0,9,0    c13.84671,2.132299,25.887711,8.121599,33.650406,19.772898c4.914993,7.379402,9.814392,14.639702,15.54689,21.396    C188.065674,61.246548,188.81366,65.952545,189.801956,70.463348z"/><path class="st1" d="M189.801956,203.463852c-6.304703,5.636688-14.408203,6.457001-22.1465,7.861298    c-18.431595,3.339798-37.089783,3.404297-55.75779,3.169891c-16.115204-0.203094-31.947304-2.408188-47.607407-6.0625    c-0.161201-0.037094-0.380901,0.027405-0.4883-0.060501c-2.608398-2.13089-7.710899-1.449295-7.908199-6.169998    c-0.207001-5.011688,4.623001-4.582001,7.6133-6c3.232403-1.535095,6.747997-2.183502,10.249996-2.816391    c0.824203,6.378891,4.810501,9.343796,10.669907,11.480499c12.025398,4.386703,22.884796,3.81839,33.372993-4.193405    c4.105499-3.136703,4.152405-7.212799,5.066505-11.314392c3.548798-2.150406,7.345695-1.386703,11.115211-0.943405    c2.654282,7.380905,7.417999,11.279297,15.712891,10.148499c3.413986-0.466797,6.945297-0.171906,10.417892-0.080093    c5.011795,0.136688,9.022507-1.5,11.531296-6.0625c6.722702,1.169891,13.915009,1.275391,18.158203,8.042999    C189.801956,201.463852,189.801956,202.463852,189.801956,203.463852z"/><path class="st2" d="M101.716057,17.421846c0.169899-0.3067,0.197205-0.626501,0.085899-0.9585c8.334,0,16.666,0,25,0    c-3.727493,2.0942-7.758797,0.722599-11.638695,0.935999C110.694557,17.644945,106.200363,17.434546,101.716057,17.421846z"/><path class="st3" d="M90.645668,38.321747c5.453194-6.8057,11.63089-12.419001,21.201195-11.3843    c9.654297,1.043499,19.584-1.152802,28.998993,3.040499c6.506897,2.898001,12.073303,6.693899,16.583099,12.927801    c-3.129898,0.5844-5.847702,0.808998-8.638702,0.570301c-11.35939-0.972702-22.540993,0.254898-33.519585,3.1455    c-5.99511,1.578598-10.115211,5.879898-10.93261,11.767597c-1.559502,11.249001-1.389603,22.450203,4.043999,33.055603    c4.923805,9.611298,13.72261,12.695297,23.211906,14.131897c11.762711,1.780701,23.091797-1.739799,34.350601-4.545898    c6.085892-1.516602,5.990189-1.899498,5.757797,4.489197c0.373993,8.403801-1.556702,16.401405-3.99321,24.369202    c-2.933594,9.593704-9.684479,14.449203-19.143478,15.953094c-8.90921,1.417908-17.840912,2.105408-26.685616-0.7285    c-1.8769-0.600586-3.949196-0.972687-5.906197-0.909195c-10.742195,0.345703-15.550804-6.936493-19.431702-15.1465    c-7.257797-15.351997-8.971603-32.001999-9.976494-48.585899c-0.619209-10.214401-1.381905-20.639698,1.162094-30.827198    C88.79126,45.895447,90.314667,42.263145,90.645668,38.321747z"/><path class="st4" d="M88.858559,49.476948c-2.761696,17.391598-1,34.745197,1.189499,51.971699    c1.328102,10.451698,3.950203,20.964897,9.180702,30.189507c3.248001,5.728989,7.309502,11.206985,15.984299,11.143494    c8.077202-0.060501,15.985397,3.505905,24.378906,2.742203c6.295898-0.574203,12.526398-1.2099,18.1875-4.224609    c3.995209-2.125992,6.504898-5.685989,7.881897-9.889099c2.526306-7.702698,4.832001-15.475594,5.197189-23.670494    c0.033203-0.751404,0.550812-1.4814,0.843811-2.2202c1.834,13.747597,1.25,27.353096-0.579102,41.146996    c-1.542007,11.627899-6.614304,22.6548-5.2061,34.834503c0.707092,6.119095-1.652298,7.894501-7.7724,8.472595    c-2.148499,0.203201-4.326202,0.128906-6.490295,0.128906c-7.352509,0.005905-10.2724-3.017502-9.907211-10.550705    c0.135803-2.802795,0.860413-5.574295,1.110413-8.378998c0.1474-1.646393,1.428696-1.529205,2.377899-2.0625    c3.041-1.710892,6.058594-3.464798,9.031189-5.289001c0.96492-0.591797,1.763702-1.453094,3.01181-2.503891    c-2.953201-1.150406-5.43071,0.070297-7.894608,0.101486c-8.494095,0.111404-16.955002,0.035202-25.341797-1.730896    c-6.960899-1.46489-9.337898,0.6138-10.704102,7.523911c-1.282196,6.48439-0.743095,12.923798-0.446297,19.378891    c0.121094,2.638702-0.7285,4.337906-2.75,5.939499c-6.914001,5.4785-16.239204,6.267502-23.865204,1.974609    c-1.492195-0.839905-2.001892-1.798813-2.227501-3.476608c-4.426796-32.917496-4.834999-65.997498-3.767593-99.103996    c0.25-7.7388-1.5-15.669899,1.432594-23.255798c0.292999-0.7603,0.689499-1.481506,1.037102-2.220802    c1.821297-4.653801,1.332001-9.798801,3.078102-14.4687C86.358559,50.562946,86.149666,48.254345,88.858559,49.476948z"/><path class="st5" d="M69.659363,90.497543c0.044899,15.623505-0.005806,31.248505,0.184601,46.870102    c0.071297,5.806595,0.637703,11.613297,1.120094,17.407196c0.209999,2.520508-0.519501,3.472702-3.218697,3.598602    c-8.7715,0.407303-12.696301-3.25-14.160202-12c-2.974598-17.7939-0.680698-35.477501,0.348602-53.200195    c0.036198-0.610306,0.480499-1.197205,0.734398-1.794899c3.475601-0.273903,6.8311-1.3144,10.308601-1.601105    C66.616463,89.642044,68.278557,89.066849,69.659363,90.497543z"/><path class="st6" d="M179.864456,71.416946c1.710907,6.421402-1.25,13.297798-8.363297,16.7173    c-12.005798,5.769997-24.613297,9.154297-38.109406,6.1894c-7.134697-1.567398-12.796799-5.796402-17.212791-11.293404    c-5.286201-6.580093-3.3965-21.405296,2.798798-26.381897c2.209,1.1241,2.5215,3.355999,3.129906,5.399899    c3.633797,12.223202,8.779297,16.105503,21.600494,16.036205c8.457092-0.045906,16.830093-1.198807,25.212891-2.193405    C173.007065,75.406647,176.204254,72.874947,179.864456,71.416946z"/><path class="st7" d="M179.864456,71.416946c-2.455093,4.529297-7.091797,5.5205-11.401398,6.032196    c-9.0439,1.074203-18.1259,2.031303-27.279297,1.930206c-10.698196-0.118202-16.989204-4.827606-19.866203-15.129906    c-0.712891-2.552197-1.556602-5.068398-2.339798-7.601097c6.042908-1.521,12.148399-2.706001,18.3554-3.327599    c1.761795-0.565903,3.150391-0.2178,3.9375,1.600597c0.337891,1.8559-0.965805,3.088402-1.740204,4.525402    c-1.705093,3.166-0.605499,5.447701,2.707001,5.8965c7.729507,1.047302,15.486404,1.987801,23.330093,1.825203    c3.406311-0.070801,3.697311-2.815506,4.800812-4.942902c0.962891-1.056202,2-1.766602,3.414093-0.753902    C177.35466,63.842247,179.049957,67.360245,179.864456,71.416946z"/><path class="st8" d="M69.659363,90.497543c-4.101501,0.708-8.412102,0.354004-12.2812,2.213806    c-1.672901,0.804199-2.382801,0.280296-2.709003-1.334007c0.139603-1.310997,0.209003-2.634697,0.431602-3.932594    c1.434601-8.348099,5.6133-11.030304,13.932602-9.261703c2.1045,0.4478,1.590897,1.787102,1.510796,2.955101    C70.33316,84.263649,69.965057,87.378349,69.659363,90.497543z"/><path class="st9" d="M140.83316,55.571247c-0.615204-1.607403-1.935501-2.117702-3.5-2.2505    c13.333099-2.575203,25.621094-0.476601,36.449295,8.150898c-1.058594,0.351002-2.118195,0.702099-3.177795,1.0532    c-7.421799-3.2505-14.997986-5.846699-23.251907-5.814899C145.137863,56.718246,142.678955,57.797745,140.83316,55.571247z"/><path class="st10" d="M88.858559,49.476948c-3.7304,2.6866-3.417892,6.935596-3.984299,10.7598    c-0.334,2.255398,0.009697,4.6157-2.1231,6.210899c0.402397-10.0014,3.412102-19.2705,7.894508-28.1264    C90.981667,42.189346,90.785362,45.971645,88.858559,49.476948z"/><path class="st11" d="M140.83316,55.571247c7.013702,0.178699,13.966797,0.1255,20.908295,2.068298    c3.55661,0.995602,6.169907,2.795002,8.865219,4.8848c0.622986,4.182098-0.847717,6.315399-5.400421,5.9692    c-7.363297-0.559998-14.79689-0.508698-22.098587-1.487701c-6.911209-0.926796-7.903412-4.830597-3.1651-10.247097    C140.267761,56.387146,140.538254,55.968246,140.83316,55.571247z"/></g></g></svg>