<?xml version="1.0" ?><svg id="Layer_1" style="enable-background:new 0 0 231.039368 231.039368;" version="1.1" viewBox="0 0 231.039368 231.039368" xml:space="preserve" xmlns="http://www.w3.org/2000/svg" xmlns:xlink="http://www.w3.org/1999/xlink"><style type="text/css">
	.st0{fill:#000001;}
	.st1{fill-rule:evenodd;clip-rule:evenodd;fill:#373B3C;}
	.st2{fill-rule:evenodd;clip-rule:evenodd;fill:#D4DFF0;}
	.st3{fill-rule:evenodd;clip-rule:evenodd;fill:#8394C2;}
	.st4{fill-rule:evenodd;clip-rule:evenodd;fill:#8293C0;}
	.st5{fill-rule:evenodd;clip-rule:evenodd;fill:#4A646E;}
	.st6{fill-rule:evenodd;clip-rule:evenodd;fill:#98C7DC;}
	.st7{fill-rule:evenodd;clip-rule:evenodd;fill:#D3DDEE;}
	.st8{fill-rule:evenodd;clip-rule:evenodd;fill:#FBFDFC;}
</style><g id="dTiyoP_1_"><g><path class="st0" d="M189.829056,70.976448c0,4,0,8,0,12c-0.857407,4.581497-2.449203,8.747993-5.276398,12.616196    c-2.499008,3.417503-1.817413,7.848602-0.942413,11.614204c3.489304,15.007797,0.8125,29.707092-1.495987,44.46489    c-1.357513,8.675308-2.975601,17.308105-4.030304,26.030701c-0.683609,5.654312-2.008804,11.111404-5.311493,15.902405    c-2.911209,4.9375-7.355515,6.902298-12.941513,6.798798c-3.4814-0.0625-6.96669,0-10.449188-0.003891    c-10.080002-0.007813-12.638611-1.716812-16.503906-10.992203c-1.737305-4.154297-2.507797-8.488297-2.487305-12.996109    c0.009811-2.076096-0.399399-4.302689-3.052696-4.173798c-2.683601,0.132797-2.006897,2.601608-2.073296,4.246109    c-0.184502,4.593689,0.288094,9.2285-1.023407,13.742203c-0.382797,12.058594-10.519493,16.515594-19.098595,18.60939    c-9.241203,2.255798-18.209-0.277405-26.475098-4.519592c-3.828201-1.962906-5.689499-5.908203-6.160202-10.294907    c-0.081497-6.158203-1.193802-12.238297-1.385201-18.3965c-0.087898-2.8125-1.038101-5.505798-4.656799-5.181595    c-6.903297,0.617203-12.903297-1.265701-17.650898-6.322311c-4.8144-5.128387-6.1469-11.862793-6.804203-18.425293    c-1.525799-15.25-0.540497-30.548798,0.254902-45.820297c0.190899-3.660202,0.097698-7.322304,0.182201-10.981903    c0.247997-10.698799,4.574699-19.100098,16.497997-20.908699c1.3106-0.198799,2.580601-0.657303,3.888203-0.910698    c8.315895-1.610306,8.4375-1.589302,9.649902-9.842304c1.403297-9.5527,4.445297-18.757797,9.801697-26.499998    c5.608002-8.1049,13.465897-14.3652,24.369194-14.213301c10.473602,0.146,21.149399-1.4908,31.377899,0.683599    c16.263702,3.4575,29.734406,11.482901,36.343796,27.929602c0.700211,1.743698,1.591812,3.312099,3.076111,4.459    C184.498947,55.035046,188.545853,62.202946,189.829056,70.976448z"/><path class="st1" d="M98.829056,214.975952c-4.037102-1.824203-8.451698-1.259811-12.671402-1.9375    c-9.105896-1.461014-18.327599-2.365311-26.832497-6.281311c-1.668499-0.767593-3.516602-1.449203-3.5947-4.117203    c-0.085503-2.913986,1.914497-3.730392,3.754799-4.523392c4.579098-1.974609,9.358898-3.400406,14.299404-4.216797    c0.947197,5.992188,4.279694,9.275391,10.201599,11.324188c9.538094,3.298904,18.616196,4.402405,27.981491-0.242188    c6.394501-3.171799,10.931602-7.43161,10.925705-15.111313c3.548897-2.150391,7.345802-1.386688,11.115303-0.941391    c2.654297,7.382797,7.408188,11.296906,15.718704,10.144501c3.412094-0.472595,6.944397-0.169907,10.417999-0.076096    c5.009796,0.134689,9.023392-1.494202,11.525391-6.0625c6.72261,1.167892,13.914993,1.275391,18.158203,8.041c0,1,0,2,0,3    c-1.2686,3.25-4.029297,4.587891-7.070297,5.673798c-10.075211,3.595688-20.585007,4.292999-31.130905,4.832001    c-1.933594,0.099594-3.945297-0.5625-5.798798,0.494202C130.163055,214.975952,114.495056,214.975952,98.829056,214.975952z"/><path class="st2" d="M90.654259,38.835743c5.452095-6.801197,11.620094-12.424799,21.198196-11.337898    c9.017601,1.023001,18.230492-1.0888,27.135796,2.3062c7.3564,2.804701,13.553696,6.877401,18.801697,13.8687    c-3.009689,0.148399-5.574188,0.547298-8.092697,0.352501c-11.354492-0.877399-22.500999,0.202099-33.547897,2.904301    c-6.542999,1.600098-10.880898,5.860298-11.794899,12.082996c-1.6231,11.066399-1.431702,22.170898,3.923798,32.575203    c5.679703,11.034203,15.857399,14.083496,26.921898,14.776398c10.544907,0.660599,20.785095-2.157295,30.900406-4.839897    c5.929703-1.572701,5.845703-1.888702,5.675797,4.472198c0.589798,8.987297-1.853607,17.432098-4.598694,25.827606    c-2.797806,8.554688-9.245102,12.925797-17.602509,14.314499c-9.167999,1.523392-18.453094,2.558594-27.628899-0.509811    c-1.861298-0.623001-3.943398-1.007797-5.892601-0.926788c-10.777298,0.451187-15.531197-6.881805-19.423798-15.058502    c-6.170395-12.964401-8.188995-26.940002-9.160698-41.082603c-0.375-5.462898-0.811996-10.934502-1.222099-16.3862    C85.382256,60.674644,87.738754,49.753746,90.654259,38.835743z"/><path class="st3" d="M90.654259,38.835743c1.063492,7.481003-3.030304,14.194401-3.086403,21.573303    c-0.152901,20.140095,1.342697,40.116695,6.587395,59.584896c2.052704,7.6231,5.808601,14.759796,11.506805,20.628906    c0.925797,0.953201,1.784195,1.375992,2.934601,1.486389c10.490196,1.001907,20.62989,4.925812,31.363289,3.842712    c3.954102-0.399399,7.984314-0.641602,11.804611-1.632813c7.4375-1.932587,12.254898-6.674789,14.650391-14.200195    c2.517609-7.907196,3.442398-16.1147,5.361404-24.123001c1.880798,13.232407,1.746109,26.427704-0.447296,39.627899    c-1.361298,8.190506-2.483398,16.397003-5.128906,24.340408c-1.041,3.128891-0.166,6.591797-0.001999,9.914001    c0.394608,7.992188-1.906204,10.425797-9.789001,10.658188c-1.663101,0.048904-3.330093,0.027405-4.995102-0.005798    c-7.3311-0.1465-9.907288-2.744202-9.682693-10.181702c0.089905-2.964798,0.848694-5.902298,1.096695-8.869095    c0.147507-1.7715,1.532211-1.417999,2.485413-1.837906c5.050797-2.224594,9.275391-5.206985,11.744095-8.44339    c-11.826202,1.425797-23.320297,0.822296-34.832001-1.14061c-6.077202-1.034698-7.842804,1.05661-8.785202,7.027405    c-0.838799,5.306595-0.935501,10.574203-0.6894,15.898407c0.398399,8.648392-3.964897,13.7715-12.699203,14.742203    c-2.792999,0.310486-5.622093,0.197189-8.414597-0.591812c-4.500999-1.273499-7.068794-2.953094-7.832497-8.709    c-4.461899-33.62059-3.811501-67.310997-3.509804-101.085495c0.109406-12.216805,3.064003-23.613701,5.0308-35.315903    C86.092758,47.458344,88.819756,43.222046,90.654259,38.835743z"/><path class="st4" d="M69.719154,90.977348c-0.510696,21.480995-0.672798,42.958,1.285202,64.386803    c0.235298,2.575195-0.513199,3.427689-3.203102,3.524399c-8.973198,0.322189-12.719799-3.0616-14.176796-11.9785    c-2.938004-17.981506-0.729-35.871605,0.352097-53.793007c0.026802-0.441399,0.444801-0.859398,0.680603-1.288101    C59.693356,91.821144,64.604958,89.605347,69.719154,90.977348z"/><path class="st5" d="M179.888657,71.931946c1.715805,6.410698-1.231506,13.286697-8.360397,16.711899    c-12,5.767097-24.6064,9.151901-38.101501,6.194397c-7.138702-1.564499-12.791107-5.797897-17.214905-11.2827    c-5.273399-6.537094-3.392601-21.388699,2.773399-26.380898c2.316498,1.722698,2.796898,4.3862,3.576202,6.910698    c3.173798,10.290001,8.905296,14.374001,19.736305,14.576599c6.978592,0.130402,13.841797-1.071297,20.783188-1.335899    C169.112259,77.096046,174.664047,74.911942,179.888657,71.931946z"/><path class="st6" d="M179.888657,71.931946c-2.455109,4.528801-7.086899,5.481499-11.399399,6.042    c-9.201202,1.196297-18.465912,1.999496-27.781311,1.905296c-9.876999-0.100098-16.247993-4.772499-19.064491-14.173294    c-0.8554-2.853104-1.7705-5.688004-2.658203-8.531303c10.025398-2.089298,19.973701-5.065399,30.343803-4.2822    c7.777298,0.587399,15.355499,2.476101,21.998001,6.816898C175.730453,62.587246,179.047745,66.449547,179.888657,71.931946z"/><path class="st7" d="M69.719154,90.977348c-4.286598,1.667999-9.165997,0.237297-13.368599,2.664093    c-1.196301,0.690903-1.325199-0.990196-1.693398-1.813499c0.118698-1.143494,0.188-2.295395,0.3643-3.431099    c1.357399-8.7407,5.849098-11.701195,14.446796-9.806702c1.978004,0.436104,1.216805,1.656807,1.157204,2.577202    C70.412056,84.443245,70.03466,87.707848,69.719154,90.977348z"/><path class="st8" d="M158.760651,68.975441c-3.995102,0.952606-9.183594-1.665497-14.702103-1.199699    c-3.239288,0.273399-7.168991-1.193893-6.924789-5.389198c0.2099-3.5928,2.714798-5.7075,6.902298-6.1343    c6.869202-0.699699,13.319397,1.011303,19.8526,2.364803c1.913101,0.396,3.6259,1.560497,5.079102,3.026798    c1.382797,1.396,2.318298,2.820801,1.5625,4.857002c-0.751999,2.023895-2.234406,2.645996-4.310608,2.503899    C164.232346,68.868942,162.227463,68.975441,158.760651,68.975441z"/></g></g></svg>