<?xml version="1.0" ?><svg id="Layer_1" style="enable-background:new 0 0 231.039368 231.039368;" version="1.1" viewBox="0 0 231.039368 231.039368" xml:space="preserve" xmlns="http://www.w3.org/2000/svg" xmlns:xlink="http://www.w3.org/1999/xlink"><style type="text/css">
	.st0{fill:#000100;}
	.st1{fill-rule:evenodd;clip-rule:evenodd;fill:#373B3C;}
	.st2{fill-rule:evenodd;clip-rule:evenodd;fill:#61EF00;}
	.st3{fill-rule:evenodd;clip-rule:evenodd;fill:#2DA82A;}
	.st4{fill-rule:evenodd;clip-rule:evenodd;fill:#2DA729;}
	.st5{fill-rule:evenodd;clip-rule:evenodd;fill:#4B646E;}
	.st6{fill-rule:evenodd;clip-rule:evenodd;fill:#98C7DC;}
	.st7{fill-rule:evenodd;clip-rule:evenodd;fill:#61EC04;}
	.st8{fill-rule:evenodd;clip-rule:evenodd;fill:#3E9246;}
	.st9{fill-rule:evenodd;clip-rule:evenodd;fill:#448E4D;}
	.st10{fill-rule:evenodd;clip-rule:evenodd;fill:#73D63C;}
	.st11{fill-rule:evenodd;clip-rule:evenodd;fill:#40924C;}
	.st12{fill-rule:evenodd;clip-rule:evenodd;fill:#6ED13A;}
	.st13{fill-rule:evenodd;clip-rule:evenodd;fill:#74D741;}
	.st14{fill-rule:evenodd;clip-rule:evenodd;fill:#78D34C;}
	.st15{fill-rule:evenodd;clip-rule:evenodd;fill:#6EDB2D;}
	.st16{fill-rule:evenodd;clip-rule:evenodd;fill:#FAFDFC;}
</style><g id="jJ595S_1_"><g><path class="st0" d="M189.828766,70.975853c0,4,0,8,0,12c-0.857407,4.581497-2.448212,8.748497-5.275406,12.616196    c-2.498993,3.417503-1.818298,7.848602-0.942398,11.614204c3.488297,15.008797,0.8116,29.707092-1.496994,44.46489    c-1.357498,8.674301-2.975601,17.309113-4.029312,26.0298c-0.683594,5.654312-2.009796,11.113312-5.3125,15.904312    c-2.910202,4.9375-7.354492,6.902298-12.941391,6.798798c-3.481506-0.0625-6.965897,0-10.449295-0.003906    c-10.080002-0.007797-12.638611-1.716797-16.503906-10.994095c-1.737305-4.152405-2.508804-8.486404-2.487305-12.994202    c0.009796-2.074203-0.398392-4.302704-3.051697-4.173798c-2.683601,0.130798-2.007797,2.599594-2.074203,4.246094    c-0.184593,4.591797,0.289001,9.226501-1.022499,13.738297c-1.799797,9.916-8.676796,16.783203-19.090797,18.730408    c-9.365295,1.751999-18.230499-0.394501-26.490295-4.640594c-3.824203-1.964813-5.685501-5.908203-6.154289-10.292999    c-0.082001-6.158203-1.193314-12.240204-1.384712-18.3965c-0.087898-2.814407-1.042-5.503906-4.659203-5.179611    c-6.903297,0.61911-12.903297-1.267593-17.650398-6.324295c-4.813499-5.128906-6.1455-11.863708-6.8018-18.4272    c-1.525299-15.249008-0.541-30.547897,0.254898-45.818901c0.190502-3.660599,0.096703-7.322197,0.181702-10.982399    c0.249001-10.701103,4.576099-19.098602,16.499001-20.907204c1.310509-0.1987,2.580097-0.6577,3.888699-0.910599    c8.3144-1.609901,8.435501-1.588898,9.648399-9.8433c1.403297-9.5527,4.445297-18.757797,9.802704-26.499998    c5.607498-8.104,13.464897-14.364799,24.369194-14.211901c10.473602,0.1465,21.149399-1.4907,31.3769,0.683599    c16.264694,3.457001,29.734406,11.482901,36.343796,27.929701c0.701202,1.743599,1.591812,3.311501,3.076202,4.4589    C184.499664,55.033951,188.545563,62.202351,189.828766,70.975853z"/><path class="st1" d="M98.828766,214.976349c-4.036102-1.830093-8.451202-1.255905-12.669899-1.9375    c-9.105507-1.470703-18.329102-2.369202-26.836002-6.283203c-1.6689-0.767593-3.515602-1.447296-3.5937-4.115295    c-0.084-2.914001,1.916-3.730408,3.755901-4.523407c4.579098-1.974594,9.359295-3.40239,14.298801-4.218796    c0.824196,6.378906,4.805611,9.351608,10.669899,11.478607c12.017593,4.36319,22.882797,3.861298,33.367195-4.193405    c4.093704-3.144501,4.122101-7.226593,5.072304-11.3125c3.548798-2.150406,7.345703-1.386703,11.116211-0.943405    c2.661087,7.369202,7.389587,11.316406,15.713791,10.1465c3.411209-0.480392,6.945297-0.175797,10.419998-0.078094    c5.013596,0.140594,9.025299-1.490204,11.527298-6.0625c6.722702,1.169907,13.914993,1.275406,18.158203,8.042999c0,1,0,2,0,3    c-1.267609,3.25-4.029297,4.587906-7.070297,5.673798c-10.075211,3.595703-20.584991,4.291-31.130905,4.832001    c-1.933609,0.097702-3.945297-0.5625-5.798798,0.494202C130.162766,214.976349,114.494766,214.976349,98.828766,214.976349z"/><path class="st2" d="M128.893265,44.122349c-3.193405,0.669899-6.361404,1.5317-9.586006,1.9702    c-6.517593,0.8862-11.157196,4.3325-14.402298,9.894501c-1.826195,2.430702-1.880898,5.152302-1.312485,7.9771    c0.342789,7.894997,0.097588,15.676201,2.806587,23.500397c4.128899,11.932701,13.234413,16.254906,24.218796,18.597206    c6.462906,1.377899,12.859299,0.031799,19.25-0.860306c3.07811,0.506805,5.89061-0.577194,8.737305-1.455093    c2.643494-0.680702,5.288101-1.361305,7.930603-2.042c1.462891,0.006294,2.789093-1.0093,4.33699-0.620605    c0.831009,1.594704,0.275299,3.283699,0.440399,4.903305c1.25,8.690399-1.242188,16.804695-3.780289,24.926796    c-2.713913,8.684998-8.779312,13.608795-17.479507,15.256302c-9.3965,1.778305-18.839798,2.217804-28.218697-0.369095    c-2.086899-0.575211-4.25-1.275406-6.376999-1.15921c-8.950188,0.492203-13.794899-5.150391-17.414101-11.966797    c-5.685501-10.706497-8.5-22.309097-9.732399-34.374496c-0.810501-7.933105-1.550804-15.877899-2.404305-23.794006    c-1.121094-10.393997,0.127007-20.266098,3.552803-29.953598c0.684502-1.937,0.602501-3.913998,1.2285-5.791    c5.238312-6.358898,11.010696-12.160599,20.063499-11.310999c10.135696,0.951101,20.635696-1.4634,30.389603,3.2339    c5.492203,2.6455,11.265594,4.868599,13.922897,11.055099c-1.294998,3.425301-4.220688,0.929203-6.241302,1.720703    C142.186157,43.861549,135.495758,42.647251,128.893265,44.122349z"/><path class="st3" d="M90.688164,38.761948c0.499001,6.599102-2.2071,12.677303-3.1436,19.050301    c-1.590797,10.830605,0.096703,21.497604,1.199203,32.167503c0.897499,8.687996,1.731499,17.4282,4.208099,25.894997    c2.430611,8.313499,5.279198,16.356895,11.228493,22.966301c1.590805,1.767593,2.988205,3.419006,5.558601,3.619095    c10.201103,0.795898,20.015602,4.724701,30.4804,3.567398c4.773499-0.52829,9.449203-1.002899,14.080109-2.592697    c5.917999-2.031296,9.488297-6.053802,11.419891-11.620193c2.888702-8.319305,5.112305-16.821205,5.269608-25.721603    c0.190399-0.540596,0.461899-0.585495,0.815399-0.1343c1.777298,13.911102,1.118195,27.679207-0.749008,41.614708    c-1.576202,11.770096-6.445297,22.986801-5.224594,35.283691c0.578094,5.8125-1.626999,7.150406-7.53421,7.357407    c-2.327194,0.082092-4.659195,0.035202-6.988297,0.035202c-7.664993,0-7.930695-0.218704-9.389694-7.662109    c-1.082001-5.5215,1.889694-11.822296,6.707092-14.632797c2.57811-1.501999,5.099609-3.148499,7.443298-4.988297    c2.373108-1.863297,0.089905-1.666-1.018478-1.902298c-7.512711,0.662094-15.026413,0.630798-22.540115,0.023392    c-2.150299-0.119095-4.335892-0.025391-6.442299-0.392593c-9.914101-1.72261-10.822296-1.191406-13.192398,8.308594    c-1.232399,4.843796-0.684601,9.796906-0.429703,14.644501c0.237305,4.531296-0.960899,7.968796-4.494095,10.675797    c-6.586006,4.560608-15.285202,4.742203-22.054703,0.51561c-1.054688-0.658203-1.6875-1.3535-1.846687-2.693298    c-3.631912-30.556702-5.010811-61.230011-3.926811-91.960503c0.280296-7.956001-0.7519-16.0112,0.584-23.8237    c1.882813-11.013702,2.496101-22.439003,8.177696-32.520004C89.790665,42.23465,89.270164,40.160851,90.688164,38.761948z"/><path class="st4" d="M69.723267,90.878151c-0.503906,15.584999-0.628906,31.170395,0.119209,46.750999    c0.230385,4.803696,0.674789,9.595703,0.931587,14.397507c0.365303,6.810989-3.269501,9.090286-9.611298,6.094193    c-4.65329-2.197296-7.377003-5.170395-7.593803-10.989807c-0.387699-10.407196-2.714798-20.747993-0.753899-31.220192    c1.451199-4.985298-0.320301-10.169899,0.939499-15.167c0.146503-2.960403-0.567398-6.003899,0.852501-8.841805    C59.654964,91.704849,64.586563,89.773651,69.723267,90.878151z"/><path class="st5" d="M179.897156,71.925552c1.70311,6.420898-1.265686,13.306099-8.369202,16.721199    c-12.005798,5.771896-24.619095,9.143501-38.111298,6.1884c-7.134796-1.5625-12.794891-5.799301-17.209991-11.298302    c-5.286102-6.584503-3.40519-21.382301,2.792-26.381302c2.210999,1.123001,2.526398,3.3545,3.134811,5.399902    c3.636688,12.2285,8.782188,15.9804,21.606392,16.092201c6.485397,0.056702,12.860397-1.104004,19.323288-1.327599    C169.104156,77.111046,174.662766,74.906952,179.897156,71.925552z"/><path class="st6" d="M179.897156,71.925552c-2.451202,4.535095-7.087891,5.483398-11.398499,6.047295    c-9.035095,1.181702-18.136688,1.974205-27.285095,1.904305c-10.714905-0.081505-16.980499-4.804199-19.866203-15.120605    c-0.713882-2.552696-1.5616-5.068298-2.348694-7.600998c10.029305-2.0513,19.966805-5.035198,30.339897-4.273499    c7.617203,0.559601,15.023392,2.436501,21.580002,6.546398C175.521164,62.314251,178.984055,66.267349,179.897156,71.925552z"/><path class="st7" d="M69.723267,90.878151c-4.252899,1.916496-9.150402,0.487801-13.413002,2.531799    c-0.264702,0.127396-1.122101-0.978104-1.703201-1.508804c0.221699-1.787094,0.3018-3.606499,0.69141-5.357498    c1.471691-6.623001,7.67289-9.917397,14.153393-7.7714c1.7304,0.573204,1.22261,1.774399,1.158195,2.761703    C70.40686,84.654549,70.03186,87.764351,69.723267,90.878151z"/><path class="st8" d="M107.951866,194.323944c4.5019-4.246094,3.882797-9.742188,3.949196-15.191391    c0.039001-3.367203-1.185585-6.943298,0.974602-10.128906c-0.006905,5.6035-0.298798,11.226608,0.071297,16.80661    C113.229164,190.050552,111.822861,192.777054,107.951866,194.323944z"/><path class="st9" d="M132.510361,161.087646c7.511795-0.007797,15.024506-0.015594,22.539108-0.023392    C147.538757,162.47435,140.025055,162.632553,132.510361,161.087646z"/><path class="st10" d="M128.893265,44.122349c4.318298-2.4151,9.001892-0.724701,13.496094-1.162598    c2.129807-0.2071,4.302704,0.035099,6.457001,0.0737c0.318298,0.181099,0.421906,0.357899,0.3125,0.5317    c-0.108383,0.171398-0.216797,0.257397-0.326202,0.257397C142.186157,43.92215,135.539658,44.022251,128.893265,44.122349z"/><path class="st11" d="M53.754562,100.743851c-0.414089,5.049797,1.271503,10.229996-0.939499,15.167999    C52.942062,110.843552,52.297565,105.728752,53.754562,100.743851z"/><path class="st12" d="M171.804367,105.958748c-0.274399,0.035103-0.54689,0.079102-0.817413,0.133301    c0.572311-3.548401-0.931595-4.9907-4.451187-4.3862C171.963562,98.989952,171.963562,98.989952,171.804367,105.958748z"/><path class="st13" d="M158.605164,103.746353c-2.707108,1.715294-5.489304,2.981895-8.736404,1.455093    C152.779968,104.716553,155.693054,104.231651,158.605164,103.746353z"/><path class="st14" d="M148.832657,43.822548c-0.000992-0.263199,0.003906-0.526897,0.013702-0.789597    c2.070297-0.437,4.495117,0.8223,6.216797-1.293503c0.82132,0.008801,1.736313-0.006798,2.005798,0.9561    c0.38681,1.379402-0.796799,1.080101-1.464798,1.128899C153.350266,43.989048,151.088562,44.44405,148.832657,43.822548z"/><path class="st15" d="M103.592476,63.964149c-0.93261-2.8843-1.943413-5.781799,1.312485-7.9771    C104.467476,58.646248,104.029961,61.304951,103.592476,63.964149z"/><path class="st16" d="M160.688156,68.97435c-5.625,0.784698-10.957092-1.866699-16.6465-1.296898    c-3.142593,0.314995-6.77829-1.055603-6.8125-4.963303c-0.033188-3.848701,2.617203-5.9058,6.667999-6.369202    c7.01561-0.801697,13.658203,0.940002,20.335907,2.4902c1.931595,0.448803,3.576202,1.659203,4.996094,3.1441    c1.423798,1.4883,1.835007,3.005905,1.005905,4.962402c-0.816498,1.923302-2.3125,2.102501-4.065506,2.045898    C164.34436,68.928452,162.515259,68.97435,160.688156,68.97435z"/></g></g></svg>